<?xml version="1.0" encoding="UTF-8" standalone="no"?>
<!-- Created with Inkscape (http://www.inkscape.org/) -->

<svg
   width="1058.3334mm"
   height="1058.3334mm"
   viewBox="0 0 1058.3334 1058.3334"
   version="1.1"
   id="svg1"
   xml:space="preserve"
   inkscape:version="1.4.2 (f4327f4, 2025-05-13)"
   sodipodi:docname="badussyBoard.svg"
   xmlns:inkscape="http://www.inkscape.org/namespaces/inkscape"
   xmlns:sodipodi="http://sodipodi.sourceforge.net/DTD/sodipodi-0.dtd"
   xmlns:xlink="http://www.w3.org/1999/xlink"
   xmlns="http://www.w3.org/2000/svg"
   xmlns:svg="http://www.w3.org/2000/svg"><sodipodi:namedview
     id="namedview1"
     pagecolor="#ffffff"
     bordercolor="#000000"
     borderopacity="0.25"
     inkscape:showpageshadow="2"
     inkscape:pageopacity="0.0"
     inkscape:pagecheckerboard="0"
     inkscape:deskcolor="#d1d1d1"
     inkscape:document-units="mm"
     inkscape:zoom="0.090755647"
     inkscape:cx="-484.81832"
     inkscape:cy="1856.6338"
     inkscape:window-width="1920"
     inkscape:window-height="1017"
     inkscape:window-x="-8"
     inkscape:window-y="418"
     inkscape:window-maximized="1"
     inkscape:current-layer="layer1" /><defs
     id="defs1"><linearGradient
       id="linearGradient1"
       inkscape:collect="always"><stop
         style="stop-color:#765d9a;stop-opacity:1;"
         offset="0.18539326"
         id="stop1" /><stop
         style="stop-color:#31273f;stop-opacity:1;"
         offset="1"
         id="stop2" /></linearGradient><linearGradient
       inkscape:collect="always"
       xlink:href="#linearGradient1"
       id="linearGradient2"
       x1="105.03952"
       y1="-380.49521"
       x2="105.03952"
       y2="677.48657"
       gradientUnits="userSpaceOnUse" /></defs><g
     inkscape:label="Layer 1"
     inkscape:groupmode="layer"
     id="layer1"
     transform="translate(424.12711,380.73544)"><path
       style="mix-blend-mode:normal;fill:url(#linearGradient2)"
       d="m -197.64376,677.2088 c -42.3697,-2.36393 -83.35617,-15.93811 -118.71022,-39.31526 -58.80777,-38.88546 -97.42381,-101.22622 -105.97312,-171.08034 -1.70686,-13.94631 -1.62362,2.37694 -1.62362,-318.38196 0,-320.08532 -0.0807,-304.1659 1.61302,-318.20556 11.65359,-96.60008 80.93608,-176.80374 174.91239,-202.48426 13.96311,-3.81564 26.49595,-6.0285 43.43155,-7.66848 6.21569,-0.60191 20.92738,-0.63199 309.03334,-0.63199 288.10597,0 302.81765,0.0301 309.03335,0.63199 16.93559,1.63998 29.46843,3.85284 43.43154,7.66848 93.97712,25.68074 163.2587,105.88334 174.9124,202.48426 1.69371,14.03966 1.61301,-1.87976 1.61301,318.20556 0,320.7589 0.0832,304.43565 -1.62362,318.38196 -11.68954,95.51213 -79.22526,174.70833 -171.76667,201.4233 -17.37795,5.01669 -35.07089,7.96803 -53.975,9.00353 -7.91755,0.4337 -596.52051,0.40327 -604.30835,-0.0312 z"
       id="path1"
       inkscape:label="Rectangle" /><path
       style="fill:#ffffff"
       d="m -110.86043,360.21408 c -10.23693,-0.31751 -23.64534,-1.35628 -33.69028,-2.61003 -19.6182,-2.44863 -44.11004,-7.78755 -63.94097,-13.93834 l -3.96875,-1.23096 V 139.59966 -63.235431 h 35.98333 35.98334 v 50.552951 50.55295 l -1.41054,27.999474 c -0.7758,15.39971 -1.36521,28.044806 -1.3098,28.100214 0.0554,0.05541 0.93789,-0.963495 1.96108,-2.264227 3.39867,-4.320554 9.63284,-10.968836 13.77711,-14.692258 19.27134,-17.314369 36.164763,-25.373946 59.331931,-28.306289 6.693415,-0.847207 23.44858,-0.848757 29.602999,-0.0027 23.290909,3.201693 41.49879,11.976993 56.802927,27.376208 23.001694,23.144594 36.423721,59.574795 39.17882,106.339555 0.472793,8.02513 0.245941,32.63424 -0.35984,39.03584 -2.34901,24.82316 -7.249734,43.39888 -16.427085,62.26528 -17.002313,34.95261 -45.6890222,58.65156 -84.133711,69.50536 -20.445134,5.77212 -40.271108,7.82802 -67.380561,6.98719 z m 28.286481,-57.41568 c 24.428057,-3.80188 43.690287,-19.49029 54.39213,-44.30049 7.894461,-18.30181 11.169517,-39.69523 10.131191,-66.17927 -0.785042,-20.02365 -2.733215,-32.83054 -6.94452,-45.65186 -3.505476,-10.67242 -8.215379,-19.0098 -14.057879,-24.885 -3.458124,-3.47748 -5.989886,-5.34072 -9.996676,-7.35699 -10.657292,-5.3629 -24.691875,-6.1134 -36.232484,-1.93751 -3.825057,1.38406 -8.334132,3.68601 -11.964515,6.10805 -10.221148,6.81912 -25.821278,23.22809 -40.006278,42.08055 l -3.24078,4.30714 v 65.41148 c 0,52.20579 0.0898,65.48601 0.44489,65.78069 0.64478,0.53512 7.87736,2.67095 12.69444,3.74874 5.80773,1.29945 14.03697,2.54414 19.84778,3.002 2.71508,0.21394 5.65088,0.44889 6.524,0.52212 3.308466,0.27749 15.132707,-0.13979 18.408701,-0.64965 z"
       id="path2"
       inkscape:label="b" /><path
       style="fill:#ffffff"
       d="m 170.65554,434.71567 c -8.37245,-1.67036 -15.29538,-7.79887 -18.19688,-16.10877 l -1.0288,-2.94648 -0.091,-150.72431 -0.091,-150.72431 -7.84648,-0.006 c -9.03895,-0.007 -11.40034,-0.36491 -15.43119,-2.33853 -3.6455,-1.78494 -7.51208,-5.65151 -9.29701,-9.29701 -2.46163,-5.027556 -2.33241,-1.4801 -2.33241,-64.029168 0,-62.549064 -0.12922,-59.001613 2.33241,-64.029169 1.78493,-3.6455 5.65151,-7.512074 9.29701,-9.297011 4.0301,-1.97325 6.39281,-2.331474 15.42408,-2.338531 l 7.83937,-0.0061 0.0981,-40.657641 0.0981,-40.657645 0.99609,-2.82222 c 1.34603,-3.81369 2.74494,-6.1613 5.31337,-8.91671 2.84733,-3.05463 6.446,-5.36954 10.3223,-6.64001 3.04576,-0.99826 3.30887,-1.02383 10.53213,-1.02383 7.22326,0 7.48637,0.0256 10.53213,1.02383 3.87631,1.27047 7.47498,3.58538 10.32231,6.64001 2.56842,2.75541 3.96733,5.10302 5.31336,8.91671 l 0.99609,2.82222 0.0981,40.657645 0.0981,40.657641 7.48659,0.0061 c 8.65039,0.0071 11.07937,0.383969 15.07131,2.338531 3.6455,1.784937 7.51207,5.651511 9.29701,9.297011 2.46163,5.027556 2.3324,1.480105 2.3324,64.029169 0,62.549068 0.12923,59.001612 -2.3324,64.029168 -1.78494,3.6455 -5.65151,7.51207 -9.29701,9.29701 -3.99273,1.95495 -6.42036,2.33146 -15.07842,2.33853 l -7.4937,0.006 -0.091,150.72431 -0.091,150.72431 -1.0288,2.94648 c -2.94878,8.44533 -9.86549,14.48664 -18.47082,16.13311 -3.25473,0.62273 -12.43085,0.60842 -15.60248,-0.0243 z m 181.68057,0 c -4.99377,-0.99629 -9.26281,-3.41899 -12.92724,-7.33628 -2.555,-2.7313 -3.95591,-5.08187 -5.30235,-8.89675 l -0.9961,-2.82222 -0.0926,-95.69098 -0.0926,-95.69097 -7.66851,-0.006 c -5.3695,-0.004 -8.40885,-0.16156 -10.13795,-0.52459 -7.94025,-1.66708 -14.55915,-8.28598 -16.22623,-16.22623 -0.77843,-3.70764 -0.77843,-114.120136 0,-117.827778 1.66708,-7.940248 8.28598,-14.559151 16.22623,-16.226228 1.7291,-0.363031 4.76845,-0.520303 10.13795,-0.524592 l 7.66851,-0.0061 0.0926,-95.690976 0.0926,-95.690981 0.9961,-2.82222 c 1.47575,-4.18124 2.86671,-6.38268 6.03425,-9.55021 3.17261,-3.17262 5.37967,-4.56555 9.55021,-6.0274 2.75161,-0.96449 3.01198,-0.98941 10.40694,-0.99609 7.42691,-0.007 7.64973,0.0145 10.70852,1.01698 3.87631,1.27047 7.47498,3.58538 10.32231,6.64001 2.56842,2.75541 3.96734,5.10302 5.31336,8.91671 l 0.99609,2.82222 0.0926,95.690981 0.0926,95.690976 7.66851,0.0061 c 5.36949,0.0043 8.40884,0.161561 10.13795,0.524592 7.94025,1.667077 14.55915,8.28598 16.22623,16.226228 0.77843,3.707642 0.77843,114.120138 0,117.827778 -1.66708,7.94025 -8.28598,14.55915 -16.22623,16.22623 -1.72911,0.36303 -4.76846,0.5203 -10.13795,0.52459 l -7.66851,0.006 -0.0926,95.69097 -0.0926,95.69098 -1.0288,2.94648 c -2.94878,8.44533 -9.86548,14.48664 -18.47082,16.13311 -3.25473,0.62273 -12.43085,0.60842 -15.60247,-0.0243 z"
       id="path3"
       inkscape:label="mixer" /></g></svg>
